<svg width="35" height="35" viewBox="0 0 35 35" fill="none" xmlns="http://www.w3.org/2000/svg">
<path d="M28.4755 18.9583H1.23806C0.55465 18.9583 0 18.305 0 17.5C0 16.695 0.55465 16.0417 1.23806 16.0417H28.4755C29.1589 16.0417 29.7135 16.695 29.7135 17.5C29.7135 18.305 29.1589 18.9583 28.4755 18.9583Z" fill="#9b9b9b"/>
<path d="M33.5417 7.74739H1.45833C0.653331 7.74739 0 7.09406 0 6.28905C0 5.48405 0.653331 4.83072 1.45833 4.83072H33.5417C34.3467 4.83072 35 5.48405 35 6.28905C35 7.09406 34.3467 7.74739 33.5417 7.74739Z" fill="#9b9b9b"/>
<path d="M15.6771 30.1084H1.82292C0.592448 30.1084 0 29.455 0 28.65C0 27.845 0.77474 27.1917 1.82292 27.1917H15.6771C16.5885 27.1917 17.5 27.845 17.5 28.65C17.5 29.455 16.8164 30.1084 15.6771 30.1084Z" fill="#9b9b9b"/>
</svg>
